<svg width="154" height="36" viewBox="0 0 154 36" fill="none" xmlns="http://www.w3.org/2000/svg">
<path d="M36 18C36 14.0886 34.7259 10.2837 32.3707 7.16104C30.0154 4.03831 26.7071 1.76778 22.9463 0.69297C19.1855 -0.381894 15.177 -0.202426 11.5272 1.20405C7.87756 2.61059 4.78534 5.16759 2.71841 8.48826C0.651539 11.8089 -0.277438 15.7124 0.0719978 19.6081C0.421434 23.5039 2.03034 27.1797 4.65515 30.0795C7.28002 32.9793 10.778 34.9452 14.6197 35.6797C17.9186 36.3105 21.3168 36.0037 24.4334 34.8111C25.2857 34.4849 25.6208 33.4867 25.2179 32.6679C24.8149 31.8491 23.8266 31.5215 22.9677 31.8301C20.5019 32.7158 17.8335 32.9295 15.2403 32.4337C12.1039 31.8341 9.24821 30.2291 7.10527 27.8617C4.96233 25.4943 3.64886 22.4933 3.36358 19.3129C3.07829 16.1324 3.83671 12.9456 5.52411 10.2346C7.2115 7.52364 9.73604 5.43606 12.7157 4.28777C15.6953 3.13949 18.9679 2.99301 22.0382 3.87053C25.1084 4.74798 27.8094 6.60169 29.7322 9.15108C31.6551 11.7005 32.6952 14.8068 32.6952 18H32.6951C32.6951 24.2852 28.2099 26.0852 24.9345 26.0852C21.6591 26.0852 18.8476 23.5527 19.2099 22.0131L21.8123 10.9525C22.0505 9.94024 21.2824 8.97049 20.2425 8.97049C19.4923 8.97049 18.8412 9.48776 18.6716 10.2184L16.1115 21.2459C15.0959 25.5541 20.6558 29.3901 24.9344 29.3901C31.2492 29.3901 36 25.6721 36 18Z" fill="#12141D"/>
<path d="M13.1675 13.8C13.564 14.3578 13.4333 15.1316 12.8754 15.5281L9.39811 18L12.8754 20.4718C13.4333 20.8684 13.564 21.6421 13.1675 22.2C12.7709 22.7579 11.9972 22.8886 11.4393 22.4921L6.94697 19.2987C6.05332 18.6635 6.05332 17.3365 6.94696 16.7012C6.94696 16.7012 6.94697 16.7012 6.94696 16.7012L11.4393 13.5079C11.9972 13.1113 12.7709 13.2421 13.1675 13.8Z" fill="#12141D"/>
<path d="M22.8325 13.8C23.2291 13.2421 24.0028 13.1113 24.5607 13.5079L29.053 16.7012C29.9466 17.3365 29.9466 18.6635 29.053 19.2987L24.5607 22.4921C24.0028 22.8886 23.2291 22.7579 22.8325 22.2C22.4359 21.6421 22.5667 20.8684 23.1246 20.4718L26.6019 18L23.1246 15.5281C22.5667 15.1316 22.4359 14.3578 22.8325 13.8Z" fill="#12141D"/>
<path d="M48.8832 29.1949L42.4918 13.2988H46.267L50.5723 24.8566L49.4462 24.8897L53.6518 13.2988H55.7716L59.9771 24.8897L58.8511 24.8566L63.1563 13.2988H66.9316L60.5401 29.1949H58.4209L54.1156 18.2001H55.3078L51.0025 29.1949H48.8832Z" fill="#12141D"/>
<path d="M76.2108 29.5262C74.6215 29.5262 73.1862 29.173 71.9055 28.4665C70.6473 27.7379 69.6429 26.7444 68.8922 25.486C68.1633 24.2275 67.7992 22.8145 67.7992 21.247C67.7992 19.6795 68.1633 18.2775 68.8922 17.0411C69.6204 15.7827 70.6031 14.7892 71.8395 14.0606C73.0977 13.3321 74.4887 12.9678 76.0119 12.9678C77.4914 12.9678 78.7939 13.31 79.92 13.9944C81.0678 14.6788 81.9619 15.6171 82.6023 16.8093C83.2644 18.0016 83.5961 19.3594 83.5961 20.8827C83.5961 21.1476 83.5737 21.4236 83.5294 21.7106C83.5076 21.9756 83.4633 22.2736 83.3972 22.6048H70.3493V19.6243H81.5093L80.1519 20.8165C80.1076 19.8451 79.92 19.0282 79.5889 18.3658C79.2578 17.7035 78.7827 17.1957 78.1648 16.8424C77.5688 16.4892 76.8293 16.3126 75.9458 16.3126C75.0187 16.3126 74.2125 16.5113 73.5285 16.9087C72.8439 17.3061 72.3139 17.8691 71.9386 18.5976C71.5633 19.3041 71.3756 20.1541 71.3756 21.1476C71.3756 22.1412 71.5745 23.0132 71.9716 23.7639C72.3694 24.5145 72.9324 25.0996 73.6607 25.5191C74.3895 25.9165 75.2282 26.1151 76.1777 26.1151C76.9945 26.1151 77.7452 25.9717 78.4298 25.6847C79.1362 25.3976 79.7323 24.9781 80.218 24.4262L82.5362 26.7775C81.7636 27.6827 80.8253 28.3671 79.7211 28.8307C78.6175 29.2944 77.4472 29.5262 76.2108 29.5262Z" fill="#12141D"/>
<path d="M87.0132 29.1949V6.01318H90.8215V29.1949H87.0132ZM89.6293 29.1949V25.7177H101.75V29.1949H89.6293Z" fill="#12141D"/>
<path d="M110.863 29.5262C109.428 29.5262 108.125 29.1619 106.955 28.4334C105.807 27.7047 104.891 26.7223 104.206 25.486C103.544 24.2275 103.213 22.8256 103.213 21.2801C103.213 19.7126 103.544 18.3106 104.206 17.0742C104.891 15.8158 105.807 14.8224 106.955 14.0937C108.125 13.3431 109.428 12.9678 110.863 12.9678C112.077 12.9678 113.148 13.2327 114.075 13.7626C115.025 14.2704 115.775 14.9769 116.327 15.8821C116.879 16.7873 117.155 17.8139 117.155 18.9619V23.5321C117.155 24.6801 116.879 25.7067 116.327 26.6119C115.797 27.5171 115.058 28.2347 114.108 28.7645C113.159 29.2723 112.077 29.5262 110.863 29.5262ZM111.459 26.082C112.806 26.082 113.887 25.6294 114.704 24.7242C115.543 23.819 115.963 22.66 115.963 21.247C115.963 20.2977 115.775 19.4587 115.4 18.7301C115.025 18.0016 114.495 17.4386 113.81 17.0411C113.148 16.6217 112.364 16.412 111.459 16.412C110.576 16.412 109.792 16.6217 109.108 17.0411C108.446 17.4386 107.916 18.0016 107.518 18.7301C107.143 19.4587 106.955 20.2977 106.955 21.247C106.955 22.1963 107.143 23.0353 107.518 23.7639C107.916 24.4924 108.446 25.0665 109.108 25.486C109.792 25.8833 110.576 26.082 111.459 26.082ZM115.731 29.195V24.923L116.36 21.0483L115.731 17.2067V13.299H119.374V29.195H115.731Z" fill="#12141D"/>
<path d="M131.928 29.5261C130.714 29.5261 129.632 29.2722 128.682 28.7644C127.733 28.2345 126.983 27.517 126.43 26.6118C125.901 25.7066 125.636 24.68 125.636 23.5319V18.9618C125.636 17.8138 125.911 16.7871 126.464 15.8819C127.016 14.9767 127.766 14.2703 128.715 13.7625C129.665 13.2326 130.735 12.9676 131.928 12.9676C133.363 12.9676 134.655 13.343 135.803 14.0936C136.973 14.8222 137.889 15.8157 138.551 17.0741C139.236 18.3105 139.578 19.7124 139.578 21.28C139.578 22.8254 139.236 24.2274 138.551 25.4858C137.889 26.7222 136.973 27.7046 135.803 28.4332C134.655 29.1618 133.363 29.5261 131.928 29.5261ZM123.417 29.1949L123.417 6H127.06V17.2066L126.43 21.0482L127.06 24.9228V29.1949H123.417ZM131.331 26.0819C132.215 26.0819 132.987 25.8832 133.65 25.4858C134.334 25.0664 134.864 24.4923 135.24 23.7637C135.637 23.0352 135.836 22.1962 135.836 21.2469C135.836 20.2975 135.637 19.4586 135.24 18.73C134.864 18.0014 134.334 17.4384 133.65 17.041C132.987 16.6215 132.215 16.4118 131.331 16.4118C130.449 16.4118 129.665 16.6215 128.98 17.041C128.296 17.4384 127.766 18.0014 127.391 18.73C127.016 19.4586 126.828 20.2975 126.828 21.2469C126.828 22.1962 127.016 23.0352 127.391 23.7637C127.766 24.4923 128.296 25.0664 128.98 25.4858C129.665 25.8832 130.449 26.0819 131.331 26.0819Z" fill="#12141D"/>
<path d="M147.827 29.5262C146.943 29.5262 146.093 29.4158 145.277 29.195C144.46 28.9522 143.709 28.621 143.024 28.2015C142.34 27.76 141.744 27.2301 141.236 26.6119L143.554 24.2937C144.106 24.934 144.735 25.4197 145.442 25.7509C146.171 26.06 146.987 26.2145 147.893 26.2145C148.71 26.2145 149.328 26.0931 149.748 25.8502C150.167 25.6074 150.377 25.2541 150.377 24.7905C150.377 24.3048 150.178 23.9295 149.781 23.6645C149.383 23.3996 148.864 23.1788 148.224 23.0022C147.606 22.8035 146.943 22.6048 146.237 22.4061C145.553 22.2074 144.89 21.9424 144.25 21.6113C143.632 21.258 143.124 20.7834 142.726 20.1872C142.329 19.5912 142.13 18.8184 142.13 17.8691C142.13 16.8535 142.362 15.9814 142.826 15.2528C143.312 14.5243 143.985 13.9613 144.846 13.5639C145.729 13.1665 146.778 12.9678 147.992 12.9678C149.273 12.9678 150.399 13.1996 151.37 13.6632C152.364 14.1048 153.191 14.7782 153.854 15.6834L151.536 18.0016C151.072 17.4275 150.542 16.997 149.946 16.71C149.35 16.423 148.665 16.2795 147.893 16.2795C147.164 16.2795 146.601 16.3898 146.204 16.6106C145.807 16.8314 145.608 17.1516 145.608 17.571C145.608 18.0126 145.807 18.3548 146.204 18.5976C146.601 18.8405 147.109 19.0502 147.727 19.2269C148.367 19.4035 149.03 19.6022 149.714 19.823C150.421 20.0217 151.083 20.3087 151.701 20.684C152.341 21.0373 152.86 21.523 153.258 22.1412C153.655 22.7373 153.854 23.521 153.854 24.4924C153.854 26.0379 153.313 27.2632 152.231 28.1684C151.149 29.0736 149.681 29.5262 147.827 29.5262Z" fill="#12141D"/>
</svg>
