<svg width="2454" height="610" viewBox="0 0 2454 610" fill="none" xmlns="http://www.w3.org/2000/svg">
<g clip-path="url(#clip0_4285_66731)">
<mask id="mask0_4285_66731" style="mask-type:luminance" maskUnits="userSpaceOnUse" x="-436" y="-319" width="3185" height="1248">
<path d="M2749 -319H-436V929H2749V-319Z" fill="white"/>
</mask>
<g mask="url(#mask0_4285_66731)">
<path fill-rule="evenodd" clip-rule="evenodd" d="M790.887 517.343C793.145 514.995 795.72 513.233 798.61 512.059C801.546 510.84 804.617 510.23 807.823 510.23C810.849 510.23 813.83 510.795 816.765 511.924C819.836 513.098 822.523 514.837 824.827 517.14C827.13 519.443 829.004 522.379 830.449 525.947C831.895 529.424 832.617 533.511 832.617 538.208C832.617 542.002 831.895 545.615 830.449 549.047C829.004 552.344 827.017 555.257 824.488 557.786C821.959 560.315 819.001 562.302 815.614 563.747C812.272 565.192 808.681 565.915 804.842 565.915C801.049 565.915 797.436 565.192 794.004 563.747C790.616 562.302 787.658 560.315 785.129 557.786C782.6 555.257 780.613 552.344 779.168 549.047C777.723 545.615 777 542.002 777 538.208V487.672H790.887V517.343ZM804.842 553.247C806.739 553.247 808.523 552.841 810.194 552.028C811.91 551.215 813.378 550.176 814.597 548.912C815.907 547.512 816.923 545.908 817.646 544.102C818.369 542.25 818.73 540.263 818.73 538.14C818.73 536.063 818.369 534.121 817.646 532.314C816.923 530.418 815.907 528.792 814.597 527.437C813.378 526.037 811.91 524.953 810.194 524.185C808.523 523.372 806.739 522.966 804.842 522.966C802.9 522.966 801.094 523.372 799.423 524.185C797.797 524.953 796.329 526.037 795.02 527.437C793.8 528.747 792.784 530.327 791.971 532.179C791.249 533.985 790.887 535.95 790.887 538.073V538.14C790.887 540.263 791.249 542.25 791.971 544.102C792.694 545.908 793.665 547.512 794.884 548.912C796.194 550.176 797.684 551.215 799.355 552.028C801.071 552.841 802.9 553.247 804.842 553.247ZM861.002 540.986C861.363 543.018 861.973 544.779 862.831 546.27C863.779 547.715 864.908 548.957 866.218 549.995C867.527 550.899 868.973 551.621 870.553 552.163C872.134 552.57 873.715 552.773 875.295 552.773C878.05 552.773 880.67 552.095 883.154 550.741C885.638 549.341 887.444 547.286 888.573 544.576L901.783 546.405C900.925 549.702 899.593 552.592 897.786 555.076C896.025 557.47 893.993 559.48 891.689 561.105C889.386 562.731 886.812 563.928 883.967 564.696C881.257 565.509 878.479 565.915 875.634 565.915C872.111 565.915 868.611 565.328 865.134 564.154C861.747 562.934 858.676 561.128 855.921 558.734C853.256 556.341 851.089 553.428 849.418 549.995C847.747 546.518 846.911 542.499 846.911 537.937C846.911 533.376 847.679 529.401 849.214 526.014C850.795 522.537 852.85 519.646 855.379 517.343C857.998 514.95 860.934 513.188 864.185 512.059C867.482 510.795 870.824 510.162 874.212 510.162C877.599 510.162 880.896 510.795 884.102 512.059C887.354 513.188 890.244 514.95 892.773 517.343C895.347 519.737 897.447 522.763 899.073 526.421C900.744 530.034 901.647 534.347 901.783 539.36V540.986H861.002ZM886.676 530.689C885.592 528.024 883.921 526.037 881.663 524.727C879.45 523.327 877.079 522.627 874.55 522.627C872.021 522.627 869.628 523.327 867.369 524.727C865.111 526.037 863.373 528.024 862.153 530.689H886.676ZM968.239 510.501L948.458 557.447C946.155 563.318 943.671 568.241 941.006 572.215C938.342 576.189 935.406 579.396 932.2 581.835C929.038 584.274 925.538 586.035 921.7 587.119C917.951 588.203 913.774 588.745 909.167 588.745V575.873C912.057 575.873 914.654 575.557 916.957 574.925C919.261 574.338 921.361 573.344 923.258 571.944C925.109 570.68 926.803 568.964 928.338 566.796C929.919 564.673 931.364 562.099 932.674 559.073L910.454 510.501H925.832L940.261 540.782L952.726 510.501H968.239ZM1004.68 510.162C1008.52 510.162 1012.11 510.885 1015.46 512.33C1018.84 513.775 1021.8 515.763 1024.33 518.292C1026.86 520.776 1028.85 523.711 1030.29 527.098C1031.74 530.485 1032.46 534.098 1032.46 537.937C1032.46 541.776 1031.74 545.389 1030.29 548.776C1028.85 552.163 1026.86 555.121 1024.33 557.65C1021.8 560.179 1018.84 562.167 1015.46 563.612C1012.11 565.057 1008.52 565.78 1004.68 565.78C1000.85 565.78 997.233 565.057 993.846 563.612C990.459 562.167 987.501 560.179 984.972 557.65C982.443 555.121 980.455 552.163 979.01 548.776C977.565 545.389 976.843 541.776 976.843 537.937C976.843 534.098 977.565 530.485 979.01 527.098C980.455 523.711 982.443 520.776 984.972 518.292C987.501 515.763 990.459 513.775 993.846 512.33C997.233 510.885 1000.85 510.162 1004.68 510.162ZM1004.68 553.112C1006.58 553.112 1008.37 552.705 1010.04 551.892C1011.75 551.124 1013.22 550.041 1014.44 548.641C1015.75 547.286 1016.77 545.705 1017.49 543.899C1018.21 542.002 1018.57 540.015 1018.57 537.937C1018.57 535.86 1018.21 533.918 1017.49 532.111C1016.77 530.214 1015.75 528.589 1014.44 527.234C1013.22 525.834 1011.75 524.75 1010.04 523.982C1008.37 523.169 1006.58 522.763 1004.68 522.763C1002.74 522.763 1000.91 523.169 999.198 523.982C997.527 524.75 996.036 525.834 994.727 527.234C993.507 528.589 992.536 530.214 991.814 532.111C991.091 533.918 990.73 535.86 990.73 537.937C990.73 540.015 991.091 542.002 991.814 543.899C992.536 545.705 993.507 547.286 994.727 548.641C996.036 550.041 997.527 551.124 999.198 551.892C1000.91 552.705 1002.74 553.112 1004.68 553.112ZM1086.65 535.905C1086.65 533.511 1086.29 531.434 1085.57 529.672C1084.94 527.866 1084.08 526.398 1083 525.269C1081.91 524.095 1080.65 523.214 1079.2 522.627C1077.8 522.085 1076.38 521.814 1074.93 521.814C1073.44 521.814 1071.98 522.085 1070.53 522.627C1069.13 523.214 1067.87 524.118 1066.74 525.337C1065.56 526.511 1064.62 528.001 1063.89 529.808C1063.26 531.524 1062.94 533.556 1062.94 535.905V565.373H1049.06V514.295C1049.06 513.166 1049.46 512.195 1050.28 511.382C1051.13 510.524 1052.13 510.095 1053.26 510.095C1054.52 510.095 1055.58 510.524 1056.44 511.382L1062.27 517.479C1064.52 514.995 1067.1 513.143 1069.99 511.924C1072.92 510.704 1075.95 510.095 1079.07 510.095C1081.73 510.095 1084.33 510.569 1086.86 511.517C1089.48 512.421 1091.76 513.866 1093.7 515.853C1095.73 517.704 1097.34 520.076 1098.51 522.966C1099.73 525.856 1100.34 529.266 1100.34 533.195H1100.2L1100.54 565.373H1086.65V535.905ZM1172.08 487.672V538.14C1172.08 541.979 1171.36 545.592 1169.91 548.979C1168.47 552.321 1166.48 555.257 1163.95 557.786C1161.42 560.315 1158.46 562.302 1155.07 563.747C1151.78 565.192 1148.21 565.915 1144.37 565.915C1140.53 565.915 1136.92 565.192 1133.53 563.747C1130.15 562.302 1127.19 560.315 1124.66 557.786C1122.13 555.257 1120.14 552.321 1118.7 548.979C1117.25 545.592 1116.53 541.979 1116.53 538.14C1116.53 533.444 1117.25 529.379 1118.7 525.947C1120.14 522.379 1122.02 519.443 1124.32 517.14C1126.62 514.837 1129.26 513.098 1132.25 511.924C1135.27 510.795 1138.3 510.23 1141.32 510.23C1144.48 510.23 1147.51 510.84 1150.4 512.059C1153.38 513.188 1156 514.95 1158.26 517.343V487.672H1172.08ZM1144.3 553.247C1146.2 553.247 1147.96 552.841 1149.59 552.028C1151.35 551.26 1152.84 550.221 1154.06 548.912C1155.37 547.512 1156.38 545.908 1157.11 544.102C1157.83 542.25 1158.19 540.263 1158.19 538.14C1158.19 536.063 1157.83 534.121 1157.11 532.314C1156.38 530.418 1155.37 528.792 1154.06 527.437C1152.84 526.082 1151.35 524.998 1149.59 524.185C1147.96 523.372 1146.2 522.966 1144.3 522.966C1142.36 522.966 1140.51 523.372 1138.75 524.185C1137.12 524.998 1135.66 526.082 1134.35 527.437C1133.13 528.792 1132.16 530.418 1131.43 532.314C1130.71 534.121 1130.35 536.063 1130.35 538.14C1130.35 540.263 1130.71 542.25 1131.43 544.102C1132.16 545.908 1133.13 547.512 1134.35 548.912C1135.66 550.221 1137.12 551.26 1138.75 552.028C1140.51 552.841 1142.36 553.247 1144.3 553.247ZM1237.38 525.405C1237.38 527.256 1238.08 528.656 1239.48 529.605C1240.84 530.553 1242.53 531.343 1244.56 531.976C1246.64 532.563 1248.88 533.15 1251.27 533.737C1253.75 534.324 1255.99 535.182 1257.98 536.311C1260.1 537.395 1261.84 538.908 1263.19 540.85C1264.59 542.837 1265.29 545.524 1265.29 548.912C1265.29 551.712 1264.71 554.196 1263.53 556.363C1262.36 558.486 1260.8 560.27 1258.86 561.715C1256.92 563.07 1254.68 564.109 1252.15 564.831C1249.71 565.463 1247.18 565.78 1244.56 565.78C1241.81 565.78 1239.05 565.418 1236.3 564.696C1233.63 563.928 1231.22 562.776 1229.05 561.241C1226.97 559.75 1225.23 557.876 1223.83 555.618C1222.48 553.315 1221.73 550.65 1221.6 547.624H1235.49C1235.76 550.063 1236.75 551.87 1238.47 553.044C1240.23 554.173 1242.08 554.737 1244.02 554.737C1245.92 554.737 1247.59 554.241 1249.03 553.247C1250.48 552.208 1251.2 550.763 1251.2 548.912C1251.2 547.331 1250.5 546.134 1249.1 545.321C1247.75 544.508 1246.01 543.831 1243.89 543.289C1241.9 542.702 1239.71 542.115 1237.32 541.528C1234.92 540.94 1232.69 540.082 1230.61 538.953C1228.58 537.779 1226.86 536.221 1225.46 534.279C1224.11 532.247 1223.43 529.56 1223.43 526.218C1223.43 523.553 1223.97 521.205 1225.05 519.172C1226.23 517.185 1227.72 515.492 1229.52 514.092C1231.33 512.737 1233.39 511.721 1235.69 511.043C1237.99 510.32 1240.36 509.959 1242.8 509.959C1245.33 509.959 1247.79 510.366 1250.19 511.179C1252.67 511.901 1254.88 513.03 1256.83 514.566C1258.77 516.056 1260.39 517.953 1261.7 520.256C1263.01 522.514 1263.76 525.156 1263.94 528.182H1250.12C1249.94 525.427 1249.1 523.418 1247.61 522.153C1246.17 520.843 1244.61 520.188 1242.94 520.188C1241.49 520.188 1240.18 520.663 1239.01 521.611C1237.92 522.469 1237.38 523.734 1237.38 525.405ZM1307.5 510.23C1311.34 510.23 1314.93 510.953 1318.27 512.398C1321.66 513.843 1324.61 515.83 1327.14 518.359C1329.67 520.798 1331.66 523.711 1333.1 527.098C1334.55 530.485 1335.27 534.098 1335.27 537.937C1335.27 541.776 1334.55 545.389 1333.1 548.776C1331.66 552.163 1329.67 555.121 1327.14 557.65C1324.61 560.179 1321.66 562.167 1318.27 563.612C1314.93 565.057 1311.34 565.78 1307.5 565.78C1303.66 565.78 1300.05 565.057 1296.66 563.612C1293.27 562.167 1290.31 560.179 1287.78 557.65C1285.25 555.121 1283.27 552.163 1281.82 548.776C1280.38 545.389 1279.65 541.776 1279.65 537.937C1279.65 534.098 1280.38 530.485 1281.82 527.098C1283.27 523.711 1285.25 520.798 1287.78 518.359C1290.31 515.83 1293.27 513.843 1296.66 512.398C1300.05 510.953 1303.66 510.23 1307.5 510.23ZM1307.5 553.112C1309.39 553.112 1311.18 552.728 1312.85 551.96C1314.57 551.147 1316.03 550.063 1317.25 548.708C1318.56 547.308 1319.58 545.705 1320.3 543.899C1321.02 542.047 1321.38 540.06 1321.38 537.937C1321.38 535.86 1321.02 533.918 1320.3 532.111C1319.58 530.214 1318.56 528.589 1317.25 527.234C1316.03 525.834 1314.57 524.75 1312.85 523.982C1311.18 523.169 1309.39 522.763 1307.5 522.763C1305.56 522.763 1303.73 523.169 1302.01 523.982C1300.34 524.75 1298.85 525.834 1297.54 527.234C1296.32 528.589 1295.35 530.214 1294.63 532.111C1293.9 533.918 1293.54 535.86 1293.54 537.937C1293.54 540.06 1293.9 542.047 1294.63 543.899C1295.35 545.705 1296.32 547.308 1297.54 548.708C1298.85 550.063 1300.34 551.147 1302.01 551.96C1303.73 552.728 1305.56 553.112 1307.5 553.112ZM1357.83 503.591C1357.83 499.843 1358.42 496.659 1359.59 494.04C1360.72 491.465 1362.48 489.365 1364.88 487.739C1367.36 486.159 1370.5 485.075 1374.29 484.488C1378.22 483.946 1382.9 483.855 1388.31 484.217V496.682C1385.11 496.591 1382.42 496.772 1380.25 497.223C1378.18 497.585 1376.48 498.217 1375.17 499.12C1373.95 500.024 1373.05 501.22 1372.46 502.711C1371.97 504.246 1371.72 506.098 1371.72 508.266V510.501H1386.15V523.237H1371.72V565.373H1357.83V523.237H1347.74V510.501H1357.83V503.591ZM1437.02 565.373C1433.95 565.599 1431.11 565.712 1428.49 565.712C1424.15 565.712 1420.54 565.396 1417.65 564.763C1414.76 564.041 1412.45 562.912 1410.74 561.376C1408.98 559.796 1407.73 557.786 1407.01 555.347C1406.29 552.818 1405.93 549.77 1405.93 546.202V523.237H1399.97C1399.11 523.237 1398.36 522.943 1397.73 522.356C1397.14 521.724 1396.85 520.979 1396.85 520.121C1396.85 519.308 1397.1 518.608 1397.6 518.021L1413.52 498.714C1414.24 497.856 1415.14 497.427 1416.23 497.427C1417.26 497.427 1418.14 497.788 1418.87 498.511C1419.59 499.233 1419.95 500.114 1419.95 501.153V510.569H1433.5V523.237H1419.95V544.034C1419.95 545.841 1420.15 547.353 1420.56 548.573C1421.01 549.747 1421.85 550.741 1423.07 551.554C1424.29 552.276 1426.03 552.818 1428.28 553.179C1430.5 553.541 1433.41 553.744 1437.02 553.789V565.373ZM1532.68 510.569L1511.54 563.002C1511.18 563.86 1510.59 564.538 1509.78 565.034C1509.06 565.576 1508.24 565.847 1507.34 565.847C1505.44 565.847 1504.07 565.012 1503.21 563.341L1490.47 538.953L1477.74 563.341C1477.37 564.109 1476.79 564.718 1475.97 565.17C1475.25 565.622 1474.48 565.847 1473.67 565.847C1472.68 565.847 1471.77 565.576 1470.96 565.034C1470.24 564.538 1469.72 563.86 1469.4 563.002L1448.27 510.569H1463.65L1475.03 538.953L1485.87 519.308C1486.36 518.54 1486.99 517.885 1487.76 517.343C1488.57 516.846 1489.48 516.598 1490.47 516.598C1491.42 516.598 1492.3 516.846 1493.11 517.343C1493.88 517.885 1494.54 518.54 1495.08 519.308L1505.92 538.953L1517.3 510.569H1532.68ZM1597.23 537.937V561.715C1597.23 562.844 1596.83 563.815 1596.02 564.628C1595.2 565.441 1594.23 565.847 1593.1 565.847C1591.88 565.847 1590.82 565.305 1589.92 564.222L1584.43 557.244C1582.17 560.089 1579.46 562.234 1576.3 563.68C1573.19 565.125 1569.89 565.847 1566.41 565.847C1563.39 565.847 1560.36 565.26 1557.33 564.086C1554.35 562.912 1551.71 561.173 1549.41 558.87C1547.11 556.567 1545.23 553.676 1543.79 550.199C1542.34 546.676 1541.62 542.566 1541.62 537.869C1541.62 534.031 1542.34 530.418 1543.79 527.03C1545.23 523.643 1547.22 520.708 1549.75 518.224C1552.28 515.695 1555.23 513.708 1558.62 512.262C1562.01 510.817 1565.62 510.095 1569.46 510.095C1573.3 510.095 1576.87 510.817 1580.16 512.262C1583.6 513.708 1586.58 515.695 1589.11 518.224C1591.63 520.753 1593.62 523.711 1595.07 527.098C1596.51 530.44 1597.23 534.053 1597.23 537.937ZM1583.35 537.869C1583.35 535.747 1582.99 533.782 1582.26 531.976C1581.54 530.124 1580.53 528.498 1579.22 527.098C1578 525.743 1576.51 524.659 1574.74 523.847C1573.12 523.079 1571.36 522.695 1569.46 522.695C1567.52 522.695 1565.67 523.079 1563.91 523.847C1562.28 524.659 1560.81 525.743 1559.5 527.098C1558.28 528.498 1557.31 530.124 1556.59 531.976C1555.87 533.782 1555.48 535.747 1555.44 537.869C1555.48 539.947 1555.87 541.934 1556.59 543.831C1557.31 545.637 1558.28 547.218 1559.5 548.573C1560.81 549.973 1562.28 551.057 1563.91 551.825C1565.67 552.637 1567.52 553.044 1569.46 553.044C1571.36 553.044 1573.12 552.637 1574.74 551.825C1576.51 551.057 1578 550.018 1579.22 548.708C1580.43 547.308 1581.41 545.705 1582.13 543.899C1582.94 542.047 1583.35 540.06 1583.35 537.937V537.869ZM1628.4 517.546C1630.56 515.153 1633.09 513.346 1635.98 512.127C1638.87 510.862 1641.88 510.208 1644.99 510.162V523.034C1640.03 523.034 1636.12 524.095 1633.27 526.218C1630.47 528.205 1629.07 531.456 1629.07 535.973V565.441H1615.19V514.363C1615.19 513.233 1615.59 512.262 1616.41 511.45C1617.26 510.591 1618.26 510.162 1619.39 510.162C1620.65 510.162 1621.71 510.591 1622.57 511.45L1628.4 517.546ZM1670.74 541.053C1671.1 543.086 1671.71 544.87 1672.57 546.405C1673.51 547.85 1674.64 549.07 1675.95 550.063C1677.26 551.012 1678.71 551.734 1680.29 552.231C1681.87 552.683 1683.45 552.908 1685.03 552.908C1687.79 552.908 1690.4 552.208 1692.89 550.808C1695.42 549.454 1697.22 547.399 1698.31 544.644L1711.52 546.473C1710.66 549.815 1709.33 552.705 1707.52 555.144C1705.76 557.538 1703.73 559.57 1701.42 561.241C1699.12 562.821 1696.55 564.018 1693.7 564.831C1690.99 565.599 1688.21 565.983 1685.37 565.983C1681.85 565.983 1678.35 565.418 1674.87 564.289C1671.48 563.025 1668.41 561.218 1665.66 558.87C1662.99 556.476 1660.82 553.541 1659.15 550.063C1657.48 546.586 1656.65 542.566 1656.65 538.005C1656.65 533.489 1657.41 529.514 1658.95 526.082C1660.53 522.65 1662.58 519.759 1665.11 517.411C1667.73 515.063 1670.67 513.301 1673.92 512.127C1677.22 510.908 1680.58 510.298 1684.01 510.298C1687.4 510.298 1690.68 510.908 1693.84 512.127C1697.09 513.301 1699.98 515.063 1702.51 517.411C1705.13 519.805 1707.23 522.853 1708.81 526.556C1710.48 530.169 1711.38 534.46 1711.52 539.428V541.053H1670.74ZM1696.41 530.756C1695.33 528.092 1693.66 526.105 1691.4 524.795C1689.19 523.44 1686.81 522.763 1684.28 522.763C1681.76 522.763 1679.36 523.44 1677.1 524.795C1674.89 526.105 1673.15 528.092 1671.89 530.756H1696.41ZM1734.08 550.944C1736.2 550.944 1737.98 551.666 1739.43 553.112C1740.87 554.557 1741.6 556.318 1741.6 558.396C1741.6 559.705 1741.26 560.902 1740.58 561.986L1734.01 576.212H1730.96L1733.47 565.78C1731.57 565.644 1729.94 564.876 1728.59 563.476C1727.28 562.031 1726.62 560.338 1726.62 558.396C1726.62 556.318 1727.35 554.557 1728.79 553.112C1730.24 551.666 1732 550.944 1734.08 550.944ZM1806.49 525.472C1806.49 527.324 1807.17 528.724 1808.53 529.672C1809.93 530.621 1811.64 531.411 1813.67 532.043C1815.75 532.631 1817.99 533.218 1820.38 533.805C1822.82 534.392 1825.06 535.25 1827.09 536.379C1829.17 537.463 1830.9 538.998 1832.3 540.986C1833.66 542.928 1834.34 545.592 1834.34 548.979C1834.34 551.779 1833.77 554.263 1832.64 556.431C1831.47 558.554 1829.91 560.338 1827.97 561.783C1826.03 563.138 1823.79 564.176 1821.26 564.899C1818.78 565.576 1816.25 565.915 1813.67 565.915C1810.92 565.915 1808.16 565.554 1805.41 564.831C1802.75 564.018 1800.33 562.844 1798.16 561.309C1796.08 559.818 1794.35 557.944 1792.95 555.686C1791.59 553.383 1790.85 550.718 1790.71 547.692H1804.53C1804.85 550.131 1805.86 551.937 1807.58 553.112C1809.29 554.241 1811.15 554.805 1813.13 554.805C1814.98 554.805 1816.63 554.308 1818.08 553.315C1819.52 552.321 1820.25 550.876 1820.25 548.979C1820.25 547.399 1819.57 546.202 1818.21 545.389C1816.81 544.621 1815.07 543.944 1813 543.357C1810.96 542.77 1808.75 542.182 1806.36 541.595C1804.01 541.008 1801.77 540.15 1799.65 539.021C1797.62 537.847 1795.93 536.289 1794.57 534.347C1793.22 532.314 1792.54 529.65 1792.54 526.353C1792.54 523.643 1793.08 521.295 1794.16 519.308C1795.29 517.275 1796.76 515.559 1798.57 514.159C1800.37 512.804 1802.43 511.811 1804.73 511.179C1807.08 510.456 1809.47 510.095 1811.91 510.095C1814.44 510.095 1816.9 510.479 1819.3 511.246C1821.74 511.969 1823.95 513.098 1825.94 514.633C1827.88 516.124 1829.48 518.043 1830.75 520.392C1832.06 522.605 1832.82 525.224 1833.05 528.25H1819.16C1819.03 525.54 1818.19 523.53 1816.66 522.221C1815.21 520.911 1813.67 520.256 1812.05 520.256C1810.6 520.256 1809.29 520.73 1808.12 521.679C1807.04 522.537 1806.49 523.801 1806.49 525.472ZM1876.61 510.298C1880.45 510.298 1884.01 511.02 1887.31 512.466C1890.74 513.911 1893.72 515.898 1896.25 518.427C1898.78 520.866 1900.77 523.779 1902.21 527.166C1903.66 530.598 1904.38 534.211 1904.38 538.005C1904.38 541.844 1903.66 545.457 1902.21 548.844C1900.77 552.276 1898.78 555.257 1896.25 557.786C1893.72 560.315 1890.74 562.302 1887.31 563.747C1884.01 565.192 1880.45 565.915 1876.61 565.915C1872.77 565.915 1869.16 565.192 1865.77 563.747C1862.38 562.302 1859.42 560.315 1856.89 557.786C1854.37 555.257 1852.38 552.276 1850.93 548.844C1849.49 545.457 1848.77 541.844 1848.77 538.005C1848.77 534.211 1849.49 530.598 1850.93 527.166C1852.38 523.779 1854.37 520.866 1856.89 518.427C1859.42 515.898 1862.38 513.911 1865.77 512.466C1869.16 511.02 1872.77 510.298 1876.61 510.298ZM1876.61 553.179C1878.5 553.179 1880.27 552.795 1881.89 552.028C1883.65 551.215 1885.14 550.131 1886.36 548.776C1887.67 547.376 1888.69 545.773 1889.41 543.966C1890.13 542.115 1890.5 540.128 1890.5 538.005C1890.5 535.927 1890.13 533.985 1889.41 532.179C1888.69 530.282 1887.67 528.656 1886.36 527.301C1885.14 525.947 1883.65 524.863 1881.89 524.05C1880.27 523.237 1878.5 522.83 1876.61 522.83C1874.67 522.83 1872.81 523.237 1871.05 524.05C1869.43 524.863 1867.96 525.947 1866.65 527.301C1865.39 528.656 1864.41 530.282 1863.74 532.179C1863.01 533.985 1862.65 535.927 1862.65 538.005C1862.65 540.128 1863.01 542.115 1863.74 543.966C1864.41 545.773 1865.39 547.376 1866.65 548.776C1867.96 550.131 1869.43 551.215 1871.05 552.028C1872.81 552.795 1874.67 553.179 1876.61 553.179ZM1920.98 565.441V487.739H1934.87V565.441H1920.98ZM2004.64 510.637V561.647C2004.64 562.867 2004.26 563.883 2003.49 564.696C2002.68 565.509 2001.66 565.915 2000.44 565.915C1999.22 565.915 1998.21 565.463 1997.39 564.56L1991.43 558.531C1989.27 560.97 1986.69 562.799 1983.71 564.018C1980.77 565.283 1977.79 565.915 1974.77 565.915C1972.06 565.915 1969.42 565.441 1966.84 564.493C1964.31 563.544 1962.03 562.121 1960 560.225C1958.06 558.283 1956.48 555.867 1955.26 552.976C1954.08 550.086 1953.5 546.699 1953.5 542.815L1953.16 510.637H1967.05V540.105C1967.05 542.499 1967.36 544.599 1967.99 546.405C1968.76 548.121 1969.66 549.566 1970.7 550.741C1971.79 551.87 1973.03 552.728 1974.43 553.315C1975.87 553.902 1977.32 554.196 1978.76 554.196C1980.26 554.196 1981.7 553.902 1983.1 553.315C1984.55 552.728 1985.83 551.87 1986.96 550.741C1988.14 549.476 1989.04 547.986 1989.67 546.27C1990.44 544.553 1990.8 542.521 1990.76 540.173V510.637H2004.64ZM2059.85 565.441C2056.74 565.667 2053.89 565.78 2051.32 565.78C2046.98 565.78 2043.37 565.463 2040.48 564.831C2037.59 564.109 2035.29 562.98 2033.57 561.444C2031.81 559.863 2030.57 557.831 2029.84 555.347C2029.12 552.818 2028.76 549.792 2028.76 546.27V523.305H2022.8C2021.94 523.305 2021.17 523.011 2020.49 522.424C2019.95 521.792 2019.68 521.024 2019.68 520.121C2019.68 519.353 2019.93 518.676 2020.43 518.088L2036.35 498.782C2037.07 497.923 2037.97 497.494 2039.06 497.494C2040.05 497.494 2040.93 497.856 2041.7 498.578C2042.42 499.301 2042.76 500.159 2042.71 501.153V510.637H2056.26V523.305H2042.71V544.102C2042.71 545.908 2042.94 547.421 2043.39 548.641C2043.84 549.815 2044.68 550.786 2045.9 551.554C2047.12 552.276 2048.86 552.818 2051.11 553.179C2053.33 553.541 2056.24 553.766 2059.85 553.857V565.441ZM2085.66 503.456C2084.76 503.817 2083.86 503.998 2082.95 503.998C2081.6 503.998 2080.31 503.636 2079.09 502.914C2077.92 502.101 2077.04 501.017 2076.45 499.662C2075.68 497.856 2075.66 496.072 2076.38 494.311C2077.15 492.504 2078.44 491.217 2080.24 490.449C2081.19 490.088 2082.1 489.907 2082.95 489.907C2084.4 489.907 2085.71 490.291 2086.88 491.059C2088.06 491.781 2088.92 492.843 2089.46 494.243C2090.27 496.049 2090.27 497.856 2089.46 499.662C2088.73 501.469 2087.47 502.733 2085.66 503.456ZM2075.91 565.441V510.569H2089.8V565.441H2075.91ZM2134.37 510.298C2138.21 510.298 2141.78 511.02 2145.07 512.466C2148.51 513.911 2151.49 515.898 2154.02 518.427C2156.55 520.866 2158.53 523.779 2159.98 527.166C2161.42 530.553 2162.15 534.166 2162.15 538.005C2162.15 541.844 2161.42 545.457 2159.98 548.844C2158.53 552.231 2156.55 555.189 2154.02 557.718C2151.49 560.247 2148.51 562.234 2145.07 563.68C2141.78 565.125 2138.21 565.847 2134.37 565.847C2130.53 565.847 2126.92 565.125 2123.53 563.68C2120.14 562.234 2117.19 560.247 2114.66 557.718C2112.13 555.189 2110.14 552.231 2108.7 548.844C2107.25 545.457 2106.53 541.844 2106.53 538.005C2106.53 534.166 2107.25 530.553 2108.7 527.166C2110.14 523.779 2112.13 520.866 2114.66 518.427C2117.19 515.898 2120.14 513.911 2123.53 512.466C2126.92 511.02 2130.53 510.298 2134.37 510.298ZM2134.37 553.179C2136.27 553.179 2138.03 552.795 2139.65 552.028C2141.42 551.215 2142.91 550.131 2144.13 548.776C2145.44 547.376 2146.45 545.773 2147.17 543.966C2147.9 542.115 2148.26 540.128 2148.26 538.005C2148.26 535.927 2147.9 533.985 2147.17 532.179C2146.45 530.282 2145.44 528.656 2144.13 527.301C2142.91 525.901 2141.42 524.818 2139.65 524.05C2138.03 523.237 2136.27 522.83 2134.37 522.83C2132.43 522.83 2130.58 523.237 2128.82 524.05C2127.19 524.818 2125.72 525.901 2124.41 527.301C2123.19 528.656 2122.22 530.282 2121.5 532.179C2120.78 533.985 2120.42 535.927 2120.42 538.005C2120.42 540.128 2120.78 542.115 2121.5 543.966C2122.22 545.773 2123.19 547.376 2124.41 548.776C2125.72 550.131 2127.19 551.215 2128.82 552.028C2130.58 552.795 2132.43 553.179 2134.37 553.179ZM2216.34 535.973C2216.34 533.579 2215.98 531.524 2215.26 529.808C2214.62 528.001 2213.77 526.511 2212.68 525.337C2211.6 524.163 2210.33 523.305 2208.89 522.763C2207.49 522.176 2206.07 521.882 2204.62 521.882C2203.13 521.882 2201.66 522.176 2200.22 522.763C2198.82 523.305 2197.55 524.208 2196.42 525.472C2195.25 526.601 2194.3 528.069 2193.58 529.876C2192.95 531.637 2192.63 533.669 2192.63 535.973V565.441H2178.74V514.363C2178.74 513.233 2179.13 512.262 2179.89 511.45C2180.8 510.591 2181.81 510.162 2182.94 510.162C2184.21 510.162 2185.27 510.591 2186.13 511.45L2191.95 517.546C2194.21 515.062 2196.79 513.211 2199.68 511.992C2202.61 510.772 2205.64 510.162 2208.75 510.162C2211.42 510.162 2214.01 510.637 2216.54 511.585C2219.16 512.533 2221.44 513.979 2223.39 515.921C2225.42 517.772 2227 520.143 2228.13 523.034C2229.39 525.924 2230.02 529.334 2230.02 533.263H2229.89L2230.23 565.441H2216.34V535.973ZM2261.86 525.472C2261.86 527.324 2262.56 528.724 2263.96 529.672C2265.32 530.621 2267.01 531.411 2269.04 532.043C2271.12 532.631 2273.36 533.218 2275.75 533.805C2278.23 534.392 2280.47 535.25 2282.46 536.379C2284.58 537.463 2286.32 538.998 2287.67 540.986C2289.07 542.928 2289.77 545.592 2289.77 548.979C2289.77 551.779 2289.19 554.263 2288.01 556.431C2286.84 558.554 2285.28 560.338 2283.34 561.783C2281.4 563.138 2279.16 564.176 2276.63 564.899C2274.19 565.576 2271.66 565.915 2269.04 565.915C2266.29 565.915 2263.53 565.554 2260.78 564.831C2258.12 564.018 2255.7 562.844 2253.53 561.309C2251.45 559.818 2249.72 557.944 2248.32 555.686C2246.96 553.383 2246.22 550.718 2246.08 547.692H2259.97C2260.24 550.131 2261.23 551.937 2262.95 553.112C2264.71 554.241 2266.56 554.805 2268.5 554.805C2270.4 554.805 2272.07 554.308 2273.52 553.315C2274.96 552.321 2275.68 550.876 2275.68 548.979C2275.68 547.399 2274.98 546.202 2273.58 545.389C2272.23 544.621 2270.49 543.944 2268.37 543.357C2266.38 542.77 2264.19 542.182 2261.8 541.595C2259.4 541.008 2257.17 540.15 2255.09 539.021C2253.06 537.847 2251.34 536.289 2249.94 534.347C2248.59 532.314 2247.91 529.65 2247.91 526.353C2247.91 523.643 2248.45 521.295 2249.53 519.308C2250.71 517.275 2252.2 515.559 2254.01 514.159C2255.81 512.804 2257.87 511.811 2260.17 511.179C2262.47 510.456 2264.84 510.095 2267.28 510.095C2269.81 510.095 2272.27 510.479 2274.67 511.246C2277.15 511.969 2279.36 513.098 2281.31 514.633C2283.25 516.124 2284.87 518.043 2286.18 520.392C2287.49 522.605 2288.24 525.224 2288.42 528.25H2274.6C2274.42 525.54 2273.58 523.53 2272.09 522.221C2270.65 520.911 2269.09 520.256 2267.42 520.256C2265.97 520.256 2264.66 520.73 2263.49 521.679C2262.41 522.537 2261.86 523.801 2261.86 525.472Z" fill="#626368"/>
<path d="M2311.22 565.06C2309.33 565.06 2307.72 564.406 2306.42 563.098C2305.11 561.789 2304.45 560.186 2304.45 558.289C2304.45 556.391 2305.11 554.788 2306.42 553.48C2307.72 552.171 2309.33 551.517 2311.22 551.517C2313.12 551.517 2314.72 552.171 2316.04 553.48C2317.34 554.788 2318 556.391 2318 558.289C2318 560.186 2317.34 561.789 2316.04 563.098C2314.72 564.406 2313.12 565.06 2311.22 565.06Z" fill="#626368"/>
<path d="M408 246L484.12 300.11C487.485 302.502 487.485 307.498 484.12 309.89L408 364M219 246L142.879 300.11C139.514 302.502 139.514 307.498 142.879 309.89L219 364" stroke="#12141D" stroke-width="36" stroke-linecap="round"/>
<path d="M610 305C610 238.724 588.41 174.252 548.504 121.34C508.595 68.427 452.537 29.954 388.812 11.742C325.088 -6.471 257.166 -3.43 195.324 20.402C133.481 44.235 81.084 87.562 46.063 143.829C11.04 200.095 -4.70104 266.238 1.21996 332.249C7.14096 398.26 34.403 460.545 78.879 509.681C123.356 558.816 182.627 592.128 247.723 604.574C303.621 615.261 361.201 610.064 414.01 589.855C428.452 584.328 434.13 567.414 427.302 553.539C420.475 539.665 403.729 534.115 389.176 539.343C347.393 554.352 302.179 557.973 258.239 549.572C205.094 539.411 156.706 512.216 120.395 472.101C84.084 431.987 61.8279 381.137 56.9939 327.246C52.16 273.355 65.011 219.356 93.603 173.42C122.195 127.484 164.972 92.111 215.46 72.654C265.948 53.198 321.4 50.715 373.425 65.584C425.449 80.452 471.215 111.862 503.796 155.06C536.378 198.258 554.002 250.893 554.002 305H554C554 411.5 478.001 442 422.501 442C367.001 442 319.362 399.088 325.501 373L369.598 185.585C373.634 168.432 360.619 152 342.998 152C330.287 152 319.254 160.765 316.38 173.147L273.001 360C255.792 433 350.001 498 422.5 498C529.5 498 610 435 610 305Z" fill="#007CF5"/>
</g>
<path d="M1705.5 411.5C1685.5 411.5 1667.33 407.333 1651 399C1635 390.667 1622.33 378.333 1613 362C1603.67 345.333 1599 324.833 1599 300.5C1599 276.5 1603.83 256 1613.5 239C1623.5 221.667 1636.5 208.333 1652.5 199C1668.83 189.667 1686.5 185 1705.5 185C1725.83 185 1742.17 189 1754.5 197C1767.17 205 1777 214.5 1784 225.5L1781 233.5L1786.5 194.5H1838V406H1782V354.5L1787.5 368C1786.17 370 1783.5 373.333 1779.5 378C1775.5 382.333 1770 387.167 1763 392.5C1756 397.833 1747.67 402.333 1738 406C1728.67 409.667 1717.83 411.5 1705.5 411.5ZM1721 365.5C1731 365.5 1740 363.667 1748 360C1756.33 356.333 1763.33 351.167 1769 344.5C1775 337.833 1779.33 329.833 1782 320.5V274.5C1779.33 265.833 1775 258.333 1769 252C1763 245.333 1755.67 240.167 1747 236.5C1738.67 232.833 1729.33 231 1719 231C1707.67 231 1697.17 233.833 1687.5 239.5C1677.83 245.167 1670 253 1664 263C1658.33 273 1655.5 284.5 1655.5 297.5C1655.5 310.167 1658.5 321.667 1664.5 332C1670.5 342.333 1678.5 350.5 1688.5 356.5C1698.5 362.5 1709.33 365.5 1721 365.5Z" fill="#12141D"/>
<path d="M2023.83 411.5C2004.83 411.5 1988.49 407.833 1974.83 400.5C1961.16 392.833 1949.99 383.167 1941.33 371.5L1946.33 357V406H1890.33V42H1946.33V238L1945.33 218C1953.66 208.333 1965.33 200.5 1980.33 194.5C1995.33 188.167 2012.33 185 2031.33 185C2049.99 185 2066.99 189.5 2082.33 198.5C2097.99 207.167 2110.49 219.833 2119.83 236.5C2129.16 253.167 2133.83 273.167 2133.83 296.5C2133.83 320.167 2128.66 340.667 2118.33 358C2108.33 375.333 2094.83 388.667 2077.83 398C2061.16 407 2043.16 411.5 2023.83 411.5ZM2011.83 364C2023.83 364 2034.66 361.167 2044.33 355.5C2054.33 349.5 2062.16 341.333 2067.83 331C2073.83 320.667 2076.83 309 2076.83 296C2076.83 283.333 2073.83 272 2067.83 262C2062.16 252 2054.33 244.167 2044.33 238.5C2034.66 232.5 2023.83 229.5 2011.83 229.5C2001.16 229.5 1991.33 231.333 1982.33 235C1973.66 238.667 1966.16 243.833 1959.83 250.5C1953.83 256.833 1949.33 264.333 1946.33 273V320C1949.66 328.667 1954.33 336.333 1960.33 343C1966.33 349.667 1973.66 354.833 1982.33 358.5C1991.33 362.167 2001.16 364 2011.83 364Z" fill="#12141D"/>
<path d="M2231.56 410.5C2215.56 410.5 2200.23 407.667 2185.56 402C2171.23 396.333 2159.06 388 2149.06 377L2173.06 345.5C2182.4 354.5 2191.56 361.167 2200.56 365.5C2209.9 369.5 2218.73 371.5 2227.06 371.5C2233.4 371.5 2239.06 370.833 2244.06 369.5C2249.4 367.833 2253.56 365.333 2256.56 362C2259.9 358.667 2261.56 354.167 2261.56 348.5C2261.56 341.833 2259.23 336.667 2254.56 333C2249.9 329 2243.9 325.833 2236.56 323.5C2229.23 320.833 2221.56 318.333 2213.56 316C2195.23 310.333 2181.56 302 2172.56 291C2163.56 280 2159.06 267.333 2159.06 253C2159.06 242 2161.9 231.5 2167.56 221.5C2173.23 211.167 2181.9 202.667 2193.56 196C2205.23 189.333 2219.9 186 2237.56 186C2253.56 186 2267.4 187.833 2279.06 191.5C2291.06 194.833 2302.23 200.667 2312.56 209L2291.06 242.5C2285.06 236.833 2277.9 232.5 2269.56 229.5C2261.56 226.167 2254.23 224.333 2247.56 224C2241.56 223.667 2236.23 224.5 2231.56 226.5C2226.9 228.167 2223.06 230.667 2220.06 234C2217.4 237.333 2216.06 241.167 2216.06 245.5C2215.73 252.167 2217.9 257.5 2222.56 261.5C2227.56 265.5 2233.9 268.667 2241.56 271C2249.23 273.333 2256.9 275.833 2264.56 278.5C2274.9 281.5 2284.06 285.667 2292.06 291C2300.06 296.333 2306.23 302.833 2310.56 310.5C2315.23 317.833 2317.56 327 2317.56 338C2317.56 350.667 2314.4 362.667 2308.06 374C2301.73 385 2292.23 393.833 2279.56 400.5C2266.9 407.167 2250.9 410.5 2231.56 410.5Z" fill="#12141D"/>
<path d="M925 194.5L980.5 323L970 324L1020.5 194.5H1075.5L979 418.5L911 275.5L849 418.5L751.5 194.5H806.5L866 330.5L846.5 327L891 226L876.5 194.5H925Z" fill="#12141D"/>
<path d="M1191.51 411.5C1166.51 411.5 1145.17 406.667 1127.51 397C1109.84 387.333 1096.34 374 1087.01 357C1077.67 339.667 1073.01 320.167 1073.01 298.5C1073.01 277.167 1078.34 258 1089.01 241C1099.67 224 1114.01 210.5 1132.01 200.5C1150.34 190.167 1170.51 185 1192.51 185C1221.51 185 1245.34 193.5 1264.01 210.5C1283.01 227.167 1295.67 250.833 1302.01 281.5L1131.51 339L1118.51 307.5L1251.51 260L1240.01 266.5C1236.34 256.5 1230.34 247.833 1222.01 240.5C1214.01 233.167 1202.67 229.5 1188.01 229.5C1176.34 229.5 1166.01 232.333 1157.01 238C1148.01 243.333 1140.84 251 1135.51 261C1130.51 270.667 1128.01 282.167 1128.01 295.5C1128.01 309.167 1130.84 321.167 1136.51 331.5C1142.17 341.833 1149.84 349.833 1159.51 355.5C1169.17 360.833 1180.17 363.5 1192.51 363.5C1201.17 363.5 1209.51 362 1217.51 359C1225.51 356 1233.01 352 1240.01 347L1265.51 388.5C1254.51 395.5 1242.34 401.167 1229.01 405.5C1216.01 409.5 1203.51 411.5 1191.51 411.5Z" fill="#12141D"/>
<path d="M1343.61 42H1402.11V350H1558V406H1343.61V42Z" fill="#12141D"/>
</g>
<defs>
<clipPath id="clip0_4285_66731">
<rect width="2454" height="610" fill="white"/>
</clipPath>
</defs>
</svg>
